# xmcd
# Track frame offsets:
# 150
# 4653
# 18424
# 36223
# 53764
# 70027
# 93800
# 109875
# 129046
# 147839
# 164390
# 181419
#
# Disc length: 2703 seconds
# Revision: 0
# Processed by: cddbd v1.5.2PL0 Copyright (c) Steve Scherf et al.
# Submitted via: VisiTrax 2.10.2.252 - For more info visit www.synapsa.com
#
DISCID=900a8d0c
DTITLE=The Fried Okra Band - This is your chance, France baby
DYEAR=2007
DGENRE=Blues
TTITLE0=Okra Prelude
TTITLE1=Poor black Maddie
TTITLE2=Glory, Glory
TTITLE3=Miss Maybelle
TTITLE4=Pushin my luck
TTITLE5=Get behind the mule
TTITLE6=France Chance
TTITLE7=High fever
TTITLE8=Ladies man
TTITLE9=3220
TTITLE10=Rollin´and Tumblin´
TTITLE11=Crossroads
EXTD=
EXTT0=
EXTT1=
EXTT2=
EXTT3=
EXTT4=
EXTT5=
EXTT6=
EXTT7=
EXTT8=
EXTT9=
EXTT10=
EXTT11=
PLAYORDER=
